HIERARCHY
ROOT Hips
{
  OFFSET 52.4579 95.6114 12.9141
  CHANNELS 6 Xposition Yposition Zposition Zrotation Xrotation Yrotation
  JOINT spine
  {
    OFFSET 0 7.96568 0.458067
    CHANNELS 3 Zrotation Xrotation Yrotation
    JOINT spine1
    {
      OFFSET 0 10.2431 0
      CHANNELS 3 Zrotation Xrotation Yrotation
      JOINT spine2
      {
        OFFSET 0 9.81475 0
        CHANNELS 3 Zrotation Xrotation Yrotation
        JOINT Neck
        {
          OFFSET 0 25.1986 1.20138
          CHANNELS 3 Zrotation Xrotation Yrotation
          JOINT Head
          {
            OFFSET 0 7.61315 0
            CHANNELS 3 Zrotation Xrotation Yrotation
            End Site
            {
              OFFSET 0 18.4281 -6.07733
            }
          }
        }
        JOINT RightShoulder
        {
          OFFSET -4.1327 10.5992 -0.575451
          CHANNELS 3 Zrotation Xrotation Yrotation
          JOINT RightArm
          {
            OFFSET 0 13.9018 0
            CHANNELS 3 Zrotation Xrotation Yrotation
            JOINT RightArmRoll
            {
              OFFSET 0 7.01789 0
              CHANNELS 3 Zrotation Xrotation Yrotation
              JOINT RightForeArm
              {
                OFFSET 0 20.4406 0
                CHANNELS 3 Zrotation Xrotation Yrotation
                JOINT RightForeArmRoll
                {
                  OFFSET 0 7.87515 0
                  CHANNELS 3 Zrotation Xrotation Yrotation
                  JOINT RightHand
                  {
                    OFFSET 0 15.8037 0
                    CHANNELS 3 Zrotation Xrotation Yrotation
                    End Site
                    {
                      OFFSET 0 0 0
                    }
                  }
                }
              }
            }
          }
        }
        JOINT LeftShoulder
        {
          OFFSET 4.1327 10.5992 -0.575451
          CHANNELS 3 Zrotation Xrotation Yrotation
          JOINT LeftArm
          {
            OFFSET 0 13.9018 0
            CHANNELS 3 Zrotation Xrotation Yrotation
            JOINT LeftArmRoll
            {
              OFFSET 0 7.01788 0
              CHANNELS 3 Zrotation Xrotation Yrotation
              JOINT LeftForeArm
              {
                OFFSET 0 20.4406 0
                CHANNELS 3 Zrotation Xrotation Yrotation
                JOINT LeftForeArmRoll
                {
                  OFFSET 0 7.87515 0
                  CHANNELS 3 Zrotation Xrotation Yrotation
                  JOINT LeftHand
                  {
                    OFFSET 0 15.8037 0
                    CHANNELS 3 Zrotation Xrotation Yrotation
                    End Site
                    {
                      OFFSET 0 0 0
                    }
                  }
                }
              }
            }
          }
        }
      }
    }
  }
  JOINT RightUpLeg
  {
    OFFSET -7.06047 -1.2947 -1.08609
    CHANNELS 3 Zrotation Xrotation Yrotation
    JOINT RightUpLegRoll
    {
      OFFSET 0 18.5308 0
      CHANNELS 3 Zrotation Xrotation Yrotation
      JOINT RightLeg
      {
        OFFSET 0 -22.9476 0
        CHANNELS 3 Zrotation Xrotation Yrotation
        JOINT RightLegRoll
        {
          OFFSET 0 23.0226 0
          CHANNELS 3 Zrotation Xrotation Yrotation
          JOINT RightFoot
          {
            OFFSET 0 19.1625 0
            CHANNELS 3 Zrotation Xrotation Yrotation
            JOINT RightToeBase
            {
              OFFSET 0 16.0188 0
              CHANNELS 3 Zrotation Xrotation Yrotation
              End Site
              {
                OFFSET 0.00678979 7.75782 -0.894206
              }
            }
          }
        }
      }
    }
  }
  JOINT LeftUpLeg
  {
    OFFSET 7.06047 -1.2947 -1.08609
    CHANNELS 3 Zrotation Xrotation Yrotation
    JOINT LeftUpLegRoll
    {
      OFFSET 0 18.5309 0
      CHANNELS 3 Zrotation Xrotation Yrotation
      JOINT LeftLeg
      {
        OFFSET 0 22.9475 0
        CHANNELS 3 Zrotation Xrotation Yrotation
        JOINT LeftLegRoll
        {
          OFFSET 0 23.2355 0
          CHANNELS 3 Zrotation Xrotation Yrotation
          JOINT LeftFoot
          {
            OFFSET 0 18.9496 0
            CHANNELS 3 Zrotation Xrotation Yrotation
            JOINT LeftToeBase
            {
              OFFSET 0 16.0188 0
              CHANNELS 3 Zrotation Xrotation Yrotation
              End Site
              {
                OFFSET -0.0304289 7.75782 -0.894207
              }
            }
          }
        }
      }
    }
  }
}
MOTION
Frames: 6
Frame Time: 0.00208333
52.9377 95.6867 10.6891 0.670008 0.341984 4.141 -0.378233 -2.66933 -0.0767051 -0.757881 -1.33554 -0.121945 -0.756394 0.309449 -0.109269 2.08017 32.7108 -3.27118 2.59064 -2.97185 -2.0405 18.1901 -16.6789 -14.8105 -10.1728 41.4676 103.078 6.57681e-006 -1.67563e-006 5.67279e-007 -18.5499 29.0299 11.6688 -4.7832e-006 -1.60063e-006 -3.00668 8.03007 -4.9514 0.69762 -13.5875 -13.7917 11.3918 4.95327 42.4935 -97.6072 -1.39841e-005 1.41967e-006 2.56823e-008 19.4251 29.3128 -12.5563 1.43182e-005 9.43722e-007 3.007 -8.03016 -4.95139 -0.697643 173.418 0.329941 -0.68551 180 7.01543e-015 178.907 177.228 5.35053 179.648 -4.12855e-006 2.17977e-006 0.0674277 -18.9803 68.293 19.7796 8.14712 25.3897 -3.28121 -175.285 1.11425 1.46176 4.5067e-006 -1.99009e-005 -1.07269 -1.84166 -4.2741 0.0613676 2.69805e-006 2.18376e-006 -0.0305973 18.6464 67.9902 -19.5253 -8.13649 25.2327 3.48774 
52.9398 95.6894 10.6907 0.655584 0.318619 4.13926 -0.374887 -2.66606 -0.0748788 -0.751133 -1.32902 -0.118548 -0.749688 0.315972 -0.105985 2.07221 32.7218 -3.26968 2.57966 -2.97071 -2.04366 18.3058 -16.6377 -14.7387 -9.74924 41.5022 102.58 6.57681e-006 -1.67563e-006 5.67279e-007 -18.3928 29.0467 11.5708 -4.7832e-006 -1.60063e-006 -3.00668 8.03007 -4.9514 0.69762 -13.7977 -13.7494 11.3109 4.66998 42.4827 -97.2273 -1.39841e-005 1.41967e-006 2.56823e-008 19.2861 29.2296 -12.4462 1.43182e-005 9.43722e-007 3.007 -8.03016 -4.95139 -0.697643 173.437 0.293204 -0.696358 180 7.01543e-015 178.906 177.232 5.32435 179.647 -4.12855e-006 2.17977e-006 0.0666265 -18.9702 68.2799 19.768 8.14718 25.3907 -3.28022 -175.265 1.09406 1.44666 4.5067e-006 -1.99009e-005 -1.07299 -1.84389 -4.28587 0.0626511 2.69805e-006 2.18376e-006 -0.030572 18.6382 67.992 -19.5268 -8.13649 25.2327 3.48774 
52.9123 95.687 10.7198 0.641852 0.295942 4.1379 -0.37186 -2.66281 -0.0732612 -0.745029 -1.32252 -0.115542 -0.743622 0.322466 -0.103081 2.06717 32.7293 -3.26915 2.56828 -2.96682 -2.04672 18.4317 -16.6009 -14.6714 -9.34398 41.5368 102.104 6.57681e-006 -1.67563e-006 5.67279e-007 -18.2413 29.0505 11.4724 -4.7832e-006 -1.60063e-006 -3.00668 8.03007 -4.9514 0.69762 -14 -13.7106 11.2363 4.38184 42.4792 -96.8541 -1.39841e-005 1.41967e-006 2.56823e-008 19.151 29.1468 -12.3388 1.43182e-005 9.43722e-007 3.007 -8.03016 -4.95139 -0.697643 173.455 0.257798 -0.706798 180 7.01543e-015 178.906 177.236 5.29925 179.647 -4.12855e-006 2.17977e-006 0.0658854 -18.9604 68.2672 19.7569 8.14725 25.3917 -3.27922 -175.246 1.07482 1.43213 4.5067e-006 -1.99009e-005 -1.07328 -1.84618 -4.29716 0.0638243 2.69805e-006 2.18376e-006 -0.0305466 18.6304 67.9937 -19.5282 -8.13649 25.2327 3.48774 
52.9167 95.6876 10.7117 0.628979 0.274239 4.13697 -0.369217 -2.65961 -0.0718991 -0.739702 -1.31613 -0.113016 -0.738326 0.328862 -0.100644 2.06544 32.7325 -3.2697 2.55654 -2.95957 -2.04962 18.5697 -16.5692 -14.6092 -8.96199 41.5721 101.655 6.57681e-006 -1.67563e-006 5.67279e-007 -18.099 29.0343 11.3739 -4.7832e-006 -1.60063e-006 -3.00668 8.03007 -4.9514 0.69762 -14.1931 -13.6764 11.1691 4.08882 42.4843 -96.4889 -1.39841e-005 1.41967e-006 2.56823e-008 19.0207 29.0647 -12.2345 1.43182e-005 9.43722e-007 3.007 -8.03016 -4.95139 -0.697643 173.471 0.224149 -0.716692 180 7.01543e-015 178.905 177.239 5.27541 179.647 -4.12855e-006 2.17977e-006 0.0652158 -18.9512 68.255 19.7463 8.14732 25.3927 -3.27821 -175.227 1.05683 1.41832 4.5067e-006 -1.99009e-005 -1.07356 -1.84856 -4.30781 0.0648571 2.69805e-006 2.18376e-006 -0.0305209 18.6231 67.9953 -19.5295 -8.13649 25.2327 3.48774 
52.9161 95.679 10.7258 0.617132 0.253796 4.13652 -0.367024 -2.65649 -0.0708393 -0.735284 -1.30991 -0.111058 -0.733932 0.335087 -0.0987603 2.0674 32.7307 -3.27139 2.54447 -2.94837 -2.05232 18.7215 -16.5433 -14.5527 -8.60833 41.6094 101.241 6.57681e-006 -1.67563e-006 5.67279e-007 -17.9693 28.9913 11.2752 -4.7832e-006 -1.60063e-006 -3.00668 8.03007 -4.9514 0.69762 -14.3758 -13.6474 11.1104 3.7909 42.4995 -96.1333 -1.39841e-005 1.41967e-006 2.56823e-008 18.8959 28.9835 -12.1338 1.43182e-005 9.43722e-007 3.007 -8.03016 -4.95139 -0.697643 173.487 0.192678 -0.7259 180 7.01543e-015 178.904 177.243 5.25315 179.646 -4.12855e-006 2.17977e-006 0.0646292 -18.9424 68.2433 19.7362 8.14739 25.3937 -3.27721 -175.211 1.0404 1.40536 4.5067e-006 -1.99009e-005 -1.07384 -1.85106 -4.31765 0.0657191 2.69805e-006 2.18376e-006 -0.030495 18.6164 67.9967 -19.5307 -8.13649 25.2327 3.48774 
52.9162 95.682 10.7304 0.606477 0.234901 4.13661 -0.365345 -2.6535 -0.0701285 -0.731907 -1.30392 -0.109758 -0.730571 0.341071 -0.0975152 2.07342 32.7233 -3.27431 2.53211 -2.93261 -2.05475 18.8892 -16.5239 -14.5024 -8.28801 41.6499 100.868 6.57681e-006 -1.67563e-006 5.67279e-007 -17.8557 28.9144 11.1766 -4.7832e-006 -1.60063e-006 -3.00668 8.03007 -4.9514 0.69762 -14.5465 -13.6244 11.0616 3.488 42.5264 -95.7887 -1.39841e-005 1.41967e-006 2.56823e-008 18.7776 28.9032 -12.0373 1.43182e-005 9.43722e-007 3.007 -8.03016 -4.95139 -0.697643 173.501 0.163811 -0.734284 180 7.01542e-015 178.904 177.246 5.23264 179.645 -4.12855e-006 2.17977e-006 0.0641368 -18.9342 68.2324 19.7268 8.14745 25.3946 -3.2762 -175.195 1.02583 1.39341 4.5067e-006 -1.99009e-005 -1.07409 -1.8537 -4.32652 0.0663802 2.69805e-006 2.18376e-006 -0.0304688 18.6103 67.998 -19.5317 -8.13649 25.2327 3.48774 
